<?xml version="1.0" standalone="no"?><!DOCTYPE svg PUBLIC "-//W3C//DTD SVG 1.1//EN" "http://www.w3.org/Graphics/SVG/1.1/DTD/svg11.dtd"><svg t="1755077582168" class="icon" viewBox="0 0 1024 1024" version="1.1" xmlns="http://www.w3.org/2000/svg" p-id="1340" xmlns:xlink="http://www.w3.org/1999/xlink" width="200" height="200"><path d="M832.65 574.86v325.29c0 18.72-15.32 34.04-34.04 34.04H656.6c-9.09 0-16.47-7.37-16.47-16.47v-143.4c0-17.94-14.54-32.48-32.48-32.48H415.9c-17.52 0-31.72 14.2-31.72 31.72v144.16c0 9.09-7.37 16.47-16.47 16.47H223.96c-17.51 0-31.84-14.33-31.84-31.84V572.49c0-0.35 0.06-0.7 0.16-1.04 3.21-21.37 11.02-31.26 15.82-35.3l252.16-212.28c29.96-25.22 73.73-25.22 103.69 0l251.3 211.55c5.17 4.35 16.02 19.48 17.02 37.7h-1.16c1.01 0.58 1.54 1.16 1.54 1.74z m105.78-166.34L599.55 125.3l0.14-0.12-7.64-6.36c-46.49-38.73-114.01-38.67-160.44 0.13l-7.11 5.94L85.57 408.16c-23.85 19.93-27.03 55.43-7.09 79.28 19.93 23.85 55.43 27.03 79.28 7.09l304.33-254.35c28.77-24.04 70.62-24.04 99.39 0L866.24 494.9c23.85 19.93 59.35 16.76 79.28-7.09 19.94-23.86 16.76-59.35-7.09-79.29z" p-id="1341" fill="#d81e06"></path></svg>