<?xml version="1.0" standalone="no"?><!DOCTYPE svg PUBLIC "-//W3C//DTD SVG 1.1//EN" "http://www.w3.org/Graphics/SVG/1.1/DTD/svg11.dtd"><svg t="1755086936512" class="icon" viewBox="0 0 1024 1024" version="1.1" xmlns="http://www.w3.org/2000/svg" p-id="1937" xmlns:xlink="http://www.w3.org/1999/xlink" width="200" height="200"><path d="M958.8096 1024H65.1904a65.2032 65.2032 0 0 1-65.1264-61.5936V437.5296a65.2032 65.2032 0 0 1 61.568-65.0752h87.3984v495.9232a27.776 27.776 0 0 0 27.776 25.216 27.8528 27.8528 0 0 0 27.8272-25.216V65.1776A65.1776 65.1776 0 0 1 266.2272 0.1024H958.656a65.2032 65.2032 0 0 1 65.1264 61.5936V958.9248A65.1776 65.1776 0 0 1 962.2144 1024zM579.2384 304.64V640a47.8464 47.8464 0 0 1-5.8368 24.7296 49.1776 49.1776 0 0 1-12.8 14.9248 67.6608 67.6608 0 0 1 6.9376 9.8048c2.3808 3.7888 4.7616 7.9872 7.2448 12.8 2.176 4.1728 4.2496 8.576 6.3232 13.5168a104.96 104.96 0 0 1 4.1216 11.8528 70.784 70.784 0 0 1 8.8832-7.1936 156.7488 156.7488 0 0 1 16.5376-9.8048c7.424-3.9168 17.3824-8.8832 29.568-14.6944a2508.288 2508.288 0 0 1 48.0256-21.888 129.3056 129.3056 0 0 1-5.3504-24.0128c-1.4848-10.3936-2.56-18.9952-3.0464-26.2912l-45.6704 18.6368V492.8h50.3808v-52.224h-50.3808v-136.064z m-166.4 372.3264a205.7216 205.7216 0 0 1 9.8048 25.216 144.0768 144.0768 0 0 1 6.016 25.1392h0.7936a394.9056 394.9056 0 0 0 40.96-1.8176 76.4672 76.4672 0 0 0 28.6464-8.3968 32.6144 32.6144 0 0 0 16.5376-17.0496 87.2704 87.2704 0 0 0 4.48-31.4624v-110.8736c8.6784-2.56 17.3056-4.864 25.6-7.0144 7.8848-2.048 16.3584-4.4032 25.1392-6.9632l-6.4768-50.304-44.2624 11.1616v-68.992h45.6192v-51.2h-45.6192v-88.0896h-54.5536v88.0896h-56.8576v51.2h56.8576v81.5616l-13.3376 3.1488-0.64 0.1536-19.584 4.608c-10.24 2.56-20.224 4.6592-29.3888 6.528l14.464 53.1456 48.4864-12.5696v96.4352a7.8592 7.8592 0 0 1-8.832 8.8832h-17.28c-8.3968 0-17.3568-0.1536-26.5472-0.4864z m284.16-371.7888v339.5584a225.8176 225.8176 0 0 0 2.56 37.5808 59.904 59.904 0 0 0 8.832 24.2944 34.304 34.304 0 0 0 16.5376 12.8 75.5968 75.5968 0 0 0 25.6 3.7632h36.3776a46.7712 46.7712 0 0 0 24.1664-5.8368 43.3152 43.3152 0 0 0 16.128-18.4064 116.1728 116.1728 0 0 0 9.5232-32.4096c2.2272-13.6192 3.9424-29.6704 5.12-47.7696a119.04 119.04 0 0 1-26.2912-9.2928 124.2624 124.2624 0 0 1-24.5248-14.9248c-0.2304 13.568-0.6144 25.856-1.1264 36.5312-0.4608 9.8816-0.9728 17.7152-1.5872 23.296a37.632 37.632 0 0 1-2.7648 12.16 5.3248 5.3248 0 0 1-4.6592 3.4816h-18.816a8.9344 8.9344 0 0 1-4.352-0.9216 6.0672 6.0672 0 0 1-2.56-3.4816 28.288 28.288 0 0 1-1.152-7.4752 256.128 256.128 0 0 1-0.2048-12.8v-130.7392c13.2608-11.776 27.4176-25.4464 42.1376-40.6016 14.1824-14.6688 27.904-29.44 40.7808-43.8784l-40.5248-38.656c-5.76 8.9344-12.2624 17.92-19.3792 27.008-7.3472 9.4208-15.36 18.6624-23.5264 27.4944l0.512-140.8z" p-id="1938" fill="#bed742"></path></svg>